<?xml version="1.0" encoding="UTF-8" standalone="no"?>
<!DOCTYPE svg PUBLIC "-//W3C//DTD SVG 1.1//EN" "http://www.w3.org/Graphics/SVG/1.1/DTD/svg11.dtd">
<svg width="100%" height="100%" viewBox="0 0 512 512" version="1.1" xmlns="http://www.w3.org/2000/svg" xmlns:xlink="http://www.w3.org/1999/xlink" xml:space="preserve" xmlns:serif="http://www.serif.com/" style="fill-rule:evenodd;clip-rule:evenodd;stroke-linejoin:round;stroke-miterlimit:2;">
    <g transform="matrix(0.668521,0,0,0.668521,-24.311,-79.626)">
        <g transform="matrix(4.16667,0,0,4.16667,0,0)">
            <path d="M108.326,148.719L117.762,155.404C118.177,155.697 118.405,156.129 118.419,156.636C118.432,157.143 118.224,157.587 117.826,157.9C117.122,158.456 116.361,158.986 115.811,159.339C103.276,167.381 82.033,163.874 77.095,148.813C76.015,145.519 75.8,140.719 75.581,137.274C74.881,126.226 74.782,115.126 74.992,104.06C75.009,103.138 75.03,102.217 75.053,101.296C75.091,99.785 76.189,98.541 77.714,98.277C80.724,97.758 83.809,97.346 86.94,97.039C87.503,96.984 88.011,97.149 88.43,97.522C88.849,97.895 89.062,98.373 89.056,98.927C89.048,99.666 89.042,100.404 89.037,101.144C89.009,104.306 88.995,107.472 88.993,110.638C88.931,119.239 89.097,127.843 89.641,136.426C89.771,138.473 89.88,142.703 90.511,144.628C92.194,149.757 101.293,151.071 106.778,148.572C107.298,148.336 107.86,148.388 108.326,148.719ZM97.85,128.26C97.902,129.988 97.967,131.725 98.058,133.483C98.109,134.466 98.567,135.292 99.384,135.87L132.191,159.117C132.63,159.426 132.891,159.849 132.967,160.372C133.042,160.894 132.912,161.371 132.58,161.788C130.942,163.843 129.141,165.627 126.968,167.274C122.739,170.479 117.762,173.153 113.26,176.018C109.671,178.302 106.073,180.801 102.653,183.529C101.452,184.487 99.77,184.487 98.57,183.529C95.149,180.801 91.551,178.302 87.963,176.018C83.46,173.153 78.483,170.479 74.255,167.274C71.541,165.216 69.407,162.948 67.449,160.203C65.805,157.899 64.568,155.681 63.686,152.994C62.202,148.465 61.83,142.828 61.532,138.121C61.302,134.491 61.133,130.833 61.019,127.164C60.987,126.158 60.526,125.305 59.691,124.714L49.838,117.733C49.235,117.304 48.485,117.25 47.822,117.585C47.159,117.919 46.772,118.548 46.782,119.276C46.874,126.66 47.121,133.556 47.463,138.969C48.045,148.135 48.906,153.048 50.261,157.181C51.618,161.316 53.468,164.673 55.878,168.052C58.288,171.432 61.258,174.832 65.605,178.128C69.952,181.423 75.677,184.613 80.26,187.53C86.511,191.508 93.186,196.474 98.152,202.187C98.786,202.917 99.63,203.298 100.611,203.298C101.593,203.298 102.436,202.917 103.071,202.187C108.037,196.474 114.711,191.508 120.963,187.53C125.546,184.613 131.27,181.423 135.617,178.128C139.965,174.832 142.934,171.432 145.344,168.052C146.998,165.734 148.389,163.425 149.536,160.871C149.959,159.929 150.34,158.97 150.682,158C151.151,156.671 150.694,155.257 149.529,154.431L138.889,146.892L100.764,119.878C100.159,119.449 99.409,119.394 98.745,119.73C98.08,120.066 97.695,120.697 97.706,121.425C97.72,122.324 97.736,123.221 97.752,124.119L97.85,128.26ZM126.104,127.712C126.399,120.506 126.376,115.655 126.298,108.445C126.287,107.419 125.82,106.538 124.969,105.934L115.238,99.041C114.636,98.613 113.889,98.558 113.226,98.891C112.563,99.224 112.176,99.85 112.182,100.576C112.183,100.766 112.185,100.954 112.186,101.144C112.212,104.306 112.228,107.472 112.23,110.638C112.258,114.496 112.328,115.983 112.251,119.84C112.23,120.901 112.7,121.823 113.58,122.447L123.048,129.156C123.638,129.573 124.364,129.637 125.019,129.327C125.675,129.017 126.075,128.423 126.104,127.712ZM69.381,103.982C69.39,103.463 69.4,102.944 69.409,102.424C69.428,101.414 69.453,100.403 69.478,99.393C69.505,98.325 69.035,97.395 68.15,96.769C65.59,94.955 66.885,95.872 62.695,92.903C61.928,92.36 61.319,91.327 61.37,90.205C61.431,88.827 62.354,87.693 63.716,87.318C86.293,81.108 114.93,81.108 137.507,87.318C138.869,87.693 139.791,88.826 139.853,90.205C140.06,94.736 140.22,99.27 140.306,103.805C140.464,112.166 140.446,120.665 140.138,129.092C140.099,130.17 140.57,131.115 141.466,131.749L150.823,138.38C151.41,138.795 152.129,138.858 152.783,138.555C153.436,138.253 153.839,137.667 153.878,136.962C153.888,136.772 153.898,136.584 153.909,136.394C154.39,127.392 154.619,115.228 154.397,103.551C154.246,95.558 153.884,87.792 153.44,80.113C153.367,78.856 152.597,77.817 151.392,77.36C121.842,66.124 79.542,66.061 49.83,77.36C48.625,77.817 47.854,78.856 47.783,80.113C47.46,85.693 47.18,91.318 46.994,97.044C46.958,98.118 47.43,99.057 48.322,99.689L60.847,108.563L66.257,112.397C66.857,112.821 67.599,112.879 68.259,112.551C68.92,112.224 69.311,111.606 69.314,110.883C69.316,109.927 69.322,108.973 69.33,108.018L69.381,103.982Z" style="fill:rgb(18,137,171);"/>
        </g>
        <g transform="matrix(4.16667,0,0,4.16667,0,0)">
            <path d="M51.892,45.519C51.767,45.016 51.845,44.536 52.126,44.098C52.408,43.659 52.813,43.385 53.327,43.281C56.685,42.611 60.119,42.001 63.559,41.459C64.509,41.31 65.414,41.922 65.635,42.857L66.668,47.234C66.888,48.166 67.792,48.775 68.74,48.634C76.848,47.418 83.512,46.124 91.79,45.763C92.784,45.72 93.566,44.912 93.566,43.931L93.566,39.543C93.566,38.544 94.378,37.727 95.39,37.71C97.149,37.68 98.886,37.675 100.616,37.692C102.346,37.675 104.083,37.68 105.841,37.71C106.852,37.727 107.665,38.544 107.665,39.543L107.665,43.931C107.665,44.918 108.449,45.72 109.437,45.763C117.72,46.124 124.383,47.418 132.493,48.634C133.44,48.776 134.343,48.166 134.562,47.234L135.597,42.857C135.817,41.922 136.724,41.31 137.674,41.459C141.114,42.001 144.547,42.611 147.904,43.281C148.42,43.385 148.823,43.659 149.105,44.098C149.386,44.536 149.465,45.016 149.34,45.519C149.082,46.549 146.571,57.465 145.134,63.725C144.985,64.372 144.332,64.753 143.691,64.575C130.617,60.957 115.799,59.008 100.726,59.008C85.587,59.008 70.701,60.979 57.577,64.637C56.934,64.816 56.279,64.433 56.131,63.782C54.943,58.515 52.951,49.76 51.892,45.519Z" style="fill:rgb(18,137,171);fill-rule:nonzero;"/>
        </g>
    </g>
</svg>
